<svg preserveAspectRatio="none" overflow="visible" style="display: block;" width="38" height="37.62" viewBox="0 0 38 37.62" fill="none" xmlns="http://www.w3.org/2000/svg">
<g id="iconmonstr-linkedin-3 1" clip-path="url(#clip0_0_4)">
<rect width="38" height="37.62" fill="#0A0909"/>
<path id="Vector" d="M30.0833 0H7.91667C3.54508 0 0 3.50963 0 7.8375V29.7825C0 34.1104 3.54508 37.62 7.91667 37.62H30.0833C34.4565 37.62 38 34.1104 38 29.7825V7.8375C38 3.50963 34.4565 0 30.0833 0ZM12.6667 29.7825H7.91667V12.54H12.6667V29.7825ZM10.2917 10.5524C8.76217 10.5524 7.52083 9.31408 7.52083 7.78734C7.52083 6.26059 8.76217 5.02227 10.2917 5.02227C11.8212 5.02227 13.0625 6.26059 13.0625 7.78734C13.0625 9.31408 11.8228 10.5524 10.2917 10.5524ZM31.6667 29.7825H26.9167V20.9982C26.9167 15.7189 20.5833 16.1186 20.5833 20.9982V29.7825H15.8333V12.54H20.5833V15.3066C22.7937 11.2531 31.6667 10.9537 31.6667 19.1878V29.7825Z" fill="white"/>
</g>
<defs>
<clipPath id="clip0_0_4">
<rect width="38" height="37.62" fill="white"/>
</clipPath>
</defs>
</svg>
